<svg width="53" height="43" viewBox="0 0 53 43" fill="none" xmlns="http://www.w3.org/2000/svg">
<mask id="path-1-inside-1" fill="white">
<path d="M52.5255 27.9567C50.7138 31.1564 48.2897 33.968 45.3914 36.2309C42.4932 38.4938 39.1776 40.1637 35.634 41.1452C32.0905 42.1267 28.3882 42.4006 24.7388 41.9514C21.0893 41.5021 17.5641 40.3384 14.3643 38.5268C11.1646 36.7151 8.35303 34.2909 6.09015 31.3927C3.82727 28.4945 2.1574 25.1789 1.17588 21.6353C0.194362 18.0917 -0.0795847 14.3895 0.369683 10.74C0.818951 7.09058 1.98263 3.56534 3.79429 0.365603L28.1599 14.1612L52.5255 27.9567Z"/>
</mask>
<path d="M52.5255 27.9567C50.7138 31.1564 48.2897 33.968 45.3914 36.2309C42.4932 38.4938 39.1776 40.1637 35.634 41.1452C32.0905 42.1267 28.3882 42.4006 24.7388 41.9514C21.0893 41.5021 17.5641 40.3384 14.3643 38.5268C11.1646 36.7151 8.35303 34.2909 6.09015 31.3927C3.82727 28.4945 2.1574 25.1789 1.17588 21.6353C0.194362 18.0917 -0.0795847 14.3895 0.369683 10.74C0.818951 7.09058 1.98263 3.56534 3.79429 0.365603L28.1599 14.1612L52.5255 27.9567Z" stroke="#CACFDB" stroke-width="4" mask="url(#path-1-inside-1)"/>
</svg>
